<svg width="20" height="20" viewBox="0 0 20 20" fill="none" xmlns="http://www.w3.org/2000/svg">
<path d="M19.5791 5.1707C19.4632 4.7555 19.2422 4.37721 18.9374 4.0724C18.6326 3.76759 18.2543 3.54657 17.8391 3.4307C16.2808 3.0132 10.0091 3.0132 10.0091 3.0132C10.0091 3.0132 3.75325 3.00486 2.17909 3.4307C1.76389 3.54657 1.3856 3.76759 1.08079 4.0724C0.775986 4.37721 0.554962 4.7555 0.439086 5.1707C0.143687 6.76612 -0.00194663 8.38566 0.00408624 10.0082C-0.000806147 11.6246 0.144822 13.238 0.439086 14.8274C0.554962 15.2426 0.775986 15.6208 1.08079 15.9257C1.3856 16.2305 1.76389 16.4515 2.17909 16.5674C3.73575 16.9857 10.0091 16.9857 10.0091 16.9857C10.0091 16.9857 16.2641 16.9857 17.8391 16.5674C18.2543 16.4515 18.6326 16.2305 18.9374 15.9257C19.2422 15.6208 19.4632 15.2426 19.5791 14.8274C19.8672 13.2374 20.0067 11.624 19.9958 10.0082C20.0078 8.38624 19.8683 6.7667 19.5791 5.1707V5.1707ZM8.00742 13.0007V7.00653L13.2274 10.0082L8.00742 13.0007Z" fill="white"/>
</svg>
