<svg width="20" height="20" viewBox="0 0 20 20" fill="none" xmlns="http://www.w3.org/2000/svg">
<g clip-path="url(#clip0)">
<path d="M19.9808 5.34674C19.8933 7.29507 18.5317 9.96591 15.9025 13.3542C13.1792 16.8934 10.8808 18.6626 8.99417 18.6626C7.82 18.6626 6.84583 17.5842 6.03333 15.4284L4.435 9.50007C3.83583 7.34674 3.195 6.26841 2.50833 6.26841C2.35917 6.26841 1.83667 6.58341 0.940833 7.21174L0 5.99757C0.9875 5.12757 1.95917 4.26091 2.9175 3.39091C4.23333 2.25091 5.22167 1.65341 5.87917 1.59174C7.435 1.44174 8.3925 2.50841 8.75167 4.79007C9.13917 7.25091 9.40917 8.78091 9.56083 9.37924C10.01 11.4209 10.5033 12.4409 11.0408 12.4409C11.4592 12.4409 12.0875 11.7776 12.9283 10.4534C13.765 9.12924 14.2117 8.12257 14.2717 7.43007C14.3917 6.28757 13.9425 5.71257 12.9267 5.71257C12.4483 5.71257 11.9542 5.81341 11.4458 6.03841C12.4342 2.81507 14.3075 1.24091 17.0808 1.34091C19.1417 1.39091 20.1042 2.72757 19.9917 5.33841L19.9808 5.34674V5.34674Z" fill="white"/>
</g>
<defs>
<clipPath id="clip0">
<rect width="20" height="20" fill="white"/>
</clipPath>
</defs>
</svg>
