<svg width="161" height="72" viewBox="0 0 161 72" fill="none" xmlns="http://www.w3.org/2000/svg">
<path d="M10.6284 50.3852C8.46042 51.8573 4.15856 53.2558 1.83715 51.392C-0.388432 49.606 2.85237 42.4425 3.49053 40.5002C5.70917 33.745 10.2075 27.4801 14.5886 21.9762C18.0523 17.625 23.4513 10.6261 29.4399 9.93169C35.7035 9.20534 36.8423 22.7692 37.1874 26.5204C38.0464 35.8588 36.7701 45.0514 34.673 54.1343C33.8001 57.9146 32.9092 61.6957 31.8523 65.4302C31.6932 65.9948 29.9926 70.9771 29.6065 70.4675C27.8087 68.0919 29.3392 64.283 30.2204 61.8457C31.6356 57.9292 33.7063 54.269 35.4562 50.4997C37.193 46.759 39.6144 43.6056 42.6739 40.8391C43.4551 40.1322 46.58 37.1601 47.3799 39.3628C47.9716 40.9898 47.6938 43.0869 47.532 44.7716C47.3834 46.3201 45.7814 49.3852 46.4883 50.8719C47.314 52.6107 49.3889 50.4136 50.0763 49.7394C52.0637 47.7888 53.7935 45.7118 56.4579 44.6348C61.2271 42.7078 59.864 50.6025 59.4668 52.8475C59.8689 52.9579 60.2702 53.069 60.6716 53.1801C62.1743 44.507 63.3555 34.9589 66.8637 26.8371C68.9448 22.0193 72.2696 17.5868 75.4139 13.4273C78.7332 9.03729 82.7969 3.51813 87.9313 1.14395C88.6625 0.805771 88.0271 -0.271951 87.3008 0.0641429C82.4684 2.29944 78.7582 7.20336 75.532 11.2531C71.9544 15.7432 68.5205 20.5666 65.9991 25.7406C63.7096 30.439 62.8236 35.9706 61.7452 41.0384C60.9112 44.9584 60.1515 48.8977 59.4675 52.8468C59.3307 53.6343 60.532 53.9725 60.6723 53.1795C61.1876 50.274 62.5479 43.3216 57.8551 43.0828C56.2954 43.0036 54.6747 44.048 53.4539 44.8834C52.7012 45.3986 52.0054 46.0007 51.3311 46.6131C50.7117 47.1763 47.5785 49.8713 47.6181 50.2393C47.5105 49.2484 48.232 47.961 48.4458 46.9916C48.7153 45.7722 48.8215 44.5084 48.9042 43.2654C49 41.83 49.2278 38.3892 47.639 37.4879C43.7725 35.2957 37.5943 44.2834 35.9958 46.7319C34.1202 49.6046 32.8286 53.0496 31.3453 56.1411C29.7857 59.3895 28.2601 62.7685 27.699 66.3517C27.5733 67.1517 27.9365 73.3277 30.3204 71.7403C31.2106 71.1473 31.5912 70.0522 31.9717 69.1009C33.1466 66.167 33.8251 62.9977 34.5792 59.9388C36.7319 51.208 38.5464 42.6119 38.6894 33.5888C38.7741 28.2439 38.3117 22.8123 36.9652 17.6299C36.1791 14.6037 34.891 11.2788 32.2439 9.41713C26.5088 5.38401 17.7662 16.2703 14.8427 19.7069C8.20071 27.5169 2.87737 36.3643 0.455969 46.3812C-0.0599762 48.5158 -0.59606 51.4309 1.62744 52.7524C4.39327 54.3954 8.80901 53.1281 11.2596 51.465C11.9213 51.0143 11.2971 49.931 10.6284 50.3852Z" fill="white"/>
<path d="M115.678 49.6638C114.902 47.7917 116.835 45.5605 117.709 44.028C118.721 42.251 119.5 40.3018 120.07 38.3422C120.53 36.7651 120.506 34.334 118.243 35.1715C116.84 35.6902 113.867 38.347 114.434 40.1226C115.239 42.6489 119.812 40.3441 121.337 39.8803C126.429 38.331 133.315 35.8805 136.664 41.467C137.204 42.4815 137.48 43.5606 137.489 44.7036C137.659 46.2084 137.156 46.3716 135.981 45.1939C135.91 43.8106 136.341 42.2753 136.737 40.9503C137.643 37.9283 139.752 35.15 141.845 32.8681C143.375 31.2002 157.97 17.9008 159.384 19.6417C159.892 20.2681 160.772 19.3779 160.268 18.7584C157.91 15.8551 146.018 27.2747 144.343 28.7593C140.782 31.9168 137.664 35.4194 135.803 39.8622C135.293 41.0809 133.224 49.1624 136.965 48.1333C140.87 47.0591 137.661 40.5163 136.399 38.8734C133.92 35.6485 128.605 36.7638 125.267 37.5047C122.836 38.0442 120.469 38.8525 118.083 39.5581C112.973 41.0677 120.205 33.4049 118.648 38.7491C117.811 41.6239 116.062 43.9585 114.822 46.6271C114.388 47.5604 114.052 48.984 114.472 49.9964C114.777 50.7297 115.987 50.4082 115.678 49.6638Z" fill="white"/>
<path d="M75.0902 39.6316C76.0846 38.5934 78.0963 36.8956 78.0567 35.311C78.0511 35.1096 77.9456 34.8582 77.747 34.7714C75.395 33.743 72.4368 39.86 74.2597 41.669C75.5304 42.9307 78.5574 41.519 79.7337 40.9885C81.9044 40.008 83.9835 38.8643 86.0778 37.7331C88.4214 36.4665 87.3472 36.9442 87.3486 38.7129C87.3493 40.1399 88.1694 40.5058 89.4721 40.326C91.1866 40.0899 92.9309 38.7407 94.3975 37.9317C95.7919 37.163 98.2202 35.1131 98.8653 37.4567C99.2167 38.7344 101.24 37.9393 101.929 37.5331C103.217 36.7755 104.339 35.7478 105.625 34.9749C106.952 34.1791 110.629 32.9896 111.74 33.4944C111.845 33.1062 111.95 32.718 112.055 32.3299C112.192 32.4292 112.33 32.5278 112.467 32.6264C112.403 31.8285 111.152 31.8223 111.217 32.6264C111.259 33.1444 111.499 33.5347 112.055 33.5805C112.66 33.6298 112.932 32.6708 112.37 32.416C111.088 31.8327 109.051 32.509 107.744 32.7708C105.274 33.2659 103.301 35.0679 101.299 36.4547C99.1744 37.9261 100.936 35.3839 99.4195 34.9034C97.3119 34.2353 94.3739 36.5185 92.6941 37.4449C91.6442 38.024 87.9833 40.501 88.9249 37.5671C89.0443 37.1942 89.2783 36.5491 89.0346 36.1623C88.5152 35.3381 87.643 35.5832 86.8562 35.954C83.4481 37.5615 80.31 39.7656 76.6297 40.7447C75.2006 39.71 74.9096 38.6907 75.7561 37.6865C76.0283 37.3199 76.2998 36.9526 76.572 36.5859C77.2095 36.1443 77.1672 35.9894 76.4443 36.1206C75.8512 37.0775 74.9839 37.9372 74.2055 38.7497C73.6486 39.3288 74.5312 40.2135 75.0902 39.6316Z" fill="white"/>
</svg>
