<svg width="201" height="51" viewBox="0 0 201 51" fill="none" xmlns="http://www.w3.org/2000/svg">
<path d="M66.3433 0C69.9255 0 72.1943 0.685674 73.1495 2.05702V2.55355C73.1495 3.45202 71.1554 5.26078 67.1672 7.97983C65.997 8.61822 64.8387 9.37483 63.6924 10.2497C63.5491 10.2497 62.1162 11.1008 59.3937 12.8032L50.5814 17.8394H50.0798C49.1007 17.4374 48.6111 17.0591 48.6111 16.7045C48.6111 16.5626 52.5874 14.1982 60.54 9.61126C67.2985 5.47357 70.6778 2.88456 70.6778 1.84423C69.8658 1.63143 68.7553 1.52503 67.3463 1.52503C61.2087 1.52503 53.471 2.75452 44.1333 5.21349C40.6227 6.06467 36.1449 7.67246 30.6999 10.0369C29.0282 10.7225 26.4848 12.0939 23.0697 14.1509C19.9651 16.5862 18.4128 18.4305 18.4128 19.6836C18.4128 21.4332 21.3383 22.4854 27.1893 22.8401C28.6938 22.9346 29.6968 23.041 30.1984 23.1592C30.2939 23.1592 30.3417 23.1238 30.3417 23.0528C32.4671 23.1238 33.8045 23.1947 34.3538 23.2656C34.4493 23.2656 34.4971 23.2302 34.4971 23.1592L35.6792 23.2656H39.9779C40.3839 23.2656 40.8854 23.3011 41.4824 23.372C41.6974 23.3011 41.8646 23.2656 41.984 23.2656C42.9631 23.3366 43.5601 23.4075 43.7751 23.4784C43.99 23.4075 44.1572 23.372 44.2766 23.372V23.4784L44.6348 23.372L45.602 23.4784C45.817 23.4075 46.0438 23.372 46.2827 23.372C46.4976 23.443 46.6648 23.4784 46.7842 23.4784C46.8797 23.4784 46.9275 23.443 46.9275 23.372C58.1041 24.0104 63.6924 24.5188 63.6924 24.8971C64.5999 24.8971 66.2597 25.37 68.6717 26.3157C70.1285 26.8359 71.5136 27.7344 72.8271 29.0111C72.8271 29.1057 73.1018 29.7204 73.651 30.8554C73.5316 31.6592 73.3645 32.2385 73.1495 32.5932C73.2689 32.7114 73.3286 32.8414 73.3286 32.9833C73.1615 33.007 72.4928 33.87 71.3226 35.5723C71.1554 35.6196 70.7733 35.9506 70.1763 36.5654C70.2718 36.5654 70.3195 36.6008 70.3195 36.6718C70.2001 36.6718 68.8269 37.5939 66.2 39.4381C61.8774 41.8498 58.5578 43.3866 56.2413 44.0487C53.1606 45.3255 49.232 46.5313 44.4557 47.6662C37.1718 49.2976 32.4194 50.1134 30.1984 50.1134C30.1984 50.2316 28.0371 50.4325 23.7145 50.7163C23.7145 50.7872 23.6667 50.8227 23.5712 50.8227L22.7115 50.7163C20.9681 50.8581 19.977 50.9291 19.7382 50.9291C14.532 50.6926 11.9289 50.4562 11.9289 50.2197L11.6065 50.3261C9.67207 50.0661 7.52272 49.4868 5.15844 48.5883C2.79415 47.5716 1.13438 46.1293 0.179112 44.2615V43.5522C0.179112 43.3157 0.119408 43.0083 0 42.63C0.119408 42.5355 0.179112 42.3345 0.179112 42.0271L0 41.8143C0.453752 40.8213 0.835858 40.2775 1.14632 40.1829L2.00606 40.2538V40.4666C2.00606 40.8213 1.83889 41.1286 1.50454 41.3887C1.60007 41.3887 1.64783 41.4242 1.64783 41.4951C1.4329 41.5188 1.32543 41.5897 1.32543 41.7079L1.64783 42.0271C1.4329 42.0744 1.26573 42.0981 1.14632 42.0981V42.2044H1.64783V43.0202C1.64783 43.2093 1.76724 43.4221 2.00606 43.6586C1.88665 44.0132 1.82695 44.3206 1.82695 44.5807C2.37623 44.888 2.65086 45.1599 2.65086 45.3964C2.53146 45.3964 2.47175 45.4318 2.47175 45.5028C4.33452 47.2288 6.11371 48.1864 7.8093 48.3755C8.71681 48.7775 10.484 49.1203 13.111 49.404C17.0037 49.5932 19.1531 49.6878 19.5591 49.6878C24.6459 49.4277 29.5177 48.9548 34.1747 48.2691L35.5001 47.8435H36.6464C36.6464 47.5834 37.6972 47.3825 39.7988 47.2406C40.1809 47.0751 41.3511 46.7677 43.3094 46.3185C43.3094 46.2239 44.4677 45.9165 46.7842 45.3964C51.656 43.8832 55.083 42.7246 57.0652 41.9207C58.9041 41.1168 60.0146 40.5612 60.3967 40.2538C63.0953 38.8588 64.7432 37.9367 65.3402 37.4875C69.2329 34.9576 71.1793 32.5695 71.1793 30.3234C71.1793 28.8102 69.2329 27.5807 65.3402 26.6349C63.6685 26.162 61.0773 25.7483 57.5667 25.3936C51.7396 24.9917 48.6469 24.7907 48.2887 24.7907C48.0499 24.7907 47.9305 24.8261 47.9305 24.8971C43.0586 24.6843 38.6883 24.5779 34.8195 24.5779C34.7239 24.5779 34.5687 24.5424 34.3538 24.4715C34.2344 24.4715 34.1747 24.507 34.1747 24.5779C29.6849 24.5779 25.2549 24.105 20.8845 23.1592C17.8038 22.1426 16.2634 20.5702 16.2634 18.4423V18.3359C17.3142 16.468 18.5322 15.1085 19.9173 14.2573C20.6099 13.3588 22.8786 11.952 26.7236 10.0369C35.1538 5.78095 45.2677 2.7427 57.0652 0.922114C61.6027 0.307371 64.6954 0 66.3433 0ZM4.2987 36.4944H4.65692V36.6718C4.32258 36.8609 4.15541 37.0737 4.15541 37.3102H3.9763C3.76136 37.3102 3.65389 37.2392 3.65389 37.0974V36.991C4.08376 36.7545 4.2987 36.589 4.2987 36.4944ZM3.15238 37.7003C3.36731 37.7239 3.47478 37.7949 3.47478 37.9131V38.0195C3.16432 38.2086 2.88968 38.516 2.65086 38.9416C2.43593 39.0125 2.26876 39.048 2.14935 39.048V39.3317C1.93441 39.8282 1.82695 40.112 1.82695 40.1829H1.64783C1.38514 40.1829 1.21796 40.041 1.14632 39.7573C1.55231 39.3317 1.94636 38.8234 2.32846 38.2323C2.78221 37.8776 3.05685 37.7003 3.15238 37.7003Z" fill="white"/>
<path d="M97.3297 9.93046C97.9029 10.8289 98.1894 11.3491 98.1894 11.491C94.249 16.7163 89.6159 22.5327 84.2903 28.9402C77.0303 38.0668 73.4003 42.701 73.4003 42.8428V42.9847C74.5705 42.1099 76.0989 40.8331 77.9856 39.1544C80.2543 37.3811 82.0693 36.1043 83.4306 35.3241C83.6216 35.3241 84.6724 34.6147 86.583 33.1961L90.0219 32.0612C90.81 32.1794 91.4309 32.605 91.8847 33.338C92.1713 33.3853 92.3146 33.7636 92.3146 34.4729C92.3146 35.4659 91.0249 37.6885 88.4457 41.1405C85.5083 45.2782 83.4545 48.0681 82.2843 49.5104C82.0693 49.5104 81.8783 49.5577 81.7111 49.6523C81.7111 49.5104 81.5678 49.3686 81.2812 49.2267C81.2812 49.6759 81.1379 50.007 80.8514 50.2197V50.3616L80.9947 50.6453C80.6125 50.8345 80.2782 50.9291 79.9916 50.9291V50.5035C79.9916 49.6523 81.8544 46.7204 85.5799 41.7079C88.589 37.5939 90.1652 35.0403 90.3085 34.0473L90.0219 33.9054C89.9025 34.0946 88.9472 34.5202 87.1561 35.1822C86.2247 35.9388 85.556 36.3171 85.1501 36.3171V35.7497H84.8635L81.9977 37.5939V38.0195C81.1618 38.0195 80.3976 38.4451 79.705 39.2962V39.4381H80.1349C80.6842 38.9652 81.2096 38.5869 81.7111 38.3032H81.8544V38.4451C80.6603 39.6982 79.6095 40.5021 78.702 40.8567C76.5288 43.0083 75.1436 44.1905 74.5466 44.4033H74.4033V43.9777H74.26C74.0212 44.1669 73.8302 44.2615 73.6869 44.2615V44.5452L74.4033 44.4033V44.6871C73.8063 45.3491 73.2809 45.6801 72.8271 45.6801H72.5405L72.1107 45.3964C72.1107 45.5855 72.0629 45.6801 71.9674 45.6801C72.0629 45.8456 72.1107 46.0821 72.1107 46.3894H72.254C72.254 46.0111 72.3973 45.822 72.6838 45.822L72.8271 46.1057C72.6599 46.1057 72.4211 46.3894 72.1107 46.9569C70.9405 47.879 70.224 48.5883 69.9613 49.0848C69.7464 49.0848 69.221 49.605 68.3851 50.6453H67.9553C67 50.3853 66.5224 49.8651 66.5224 49.0848C66.5224 48.4228 69.0538 44.9708 74.1167 38.7288C76.0034 36.0334 77.6751 33.9054 79.1319 32.3449C80.5648 30.2643 82.1887 28.2309 84.0037 26.2448C85.6277 23.8804 87.0606 22.0834 88.3024 20.854C93.031 14.5647 95.849 10.9708 96.7565 10.0723C96.9237 9.97775 97.1148 9.93046 97.3297 9.93046ZM79.8483 33.338V33.4798H80.1349L80.2782 32.9124C80.1349 32.9124 79.9916 33.0542 79.8483 33.338ZM86.4397 35.0403H86.7262C86.7262 34.8275 87.0128 34.6857 87.586 34.6147C87.586 34.4256 87.7293 34.331 88.0159 34.331V34.1891H87.586C86.8218 34.5438 86.4397 34.8275 86.4397 35.0403ZM85.1501 35.6078L85.4366 35.7497C85.8904 35.4659 86.177 35.3241 86.2964 35.3241V35.1822H85.8665C85.3889 35.2531 85.1501 35.395 85.1501 35.6078ZM84.0037 36.459H84.2903C84.4814 36.4826 84.5769 36.5772 84.5769 36.7427L82.7141 38.0195L82.5708 37.7357C82.5708 37.6175 83.0007 37.2392 83.8604 36.6008C83.8604 36.5063 83.9082 36.459 84.0037 36.459ZM78.2721 40.573H78.5587C78.7975 40.3839 78.9886 40.2893 79.1319 40.2893V40.0056H78.8453C78.702 40.0056 78.511 40.1947 78.2721 40.573ZM76.8392 41.7079V41.8498C77.6035 41.5188 77.9856 41.2823 77.9856 41.1405V40.8567H77.8423C77.2213 41.1641 76.887 41.4478 76.8392 41.7079ZM75.8362 42.701H75.9795C76.1706 42.701 76.2661 42.6064 76.2661 42.4172V42.2754C76.1228 42.2754 75.9795 42.4172 75.8362 42.701ZM74.8332 42.4172V42.8428H75.1198V42.701C75.1198 42.5118 75.0242 42.4172 74.8332 42.4172ZM74.9765 43.1266L74.8332 43.4103V43.5522C75.0242 43.4576 75.1675 43.4103 75.2631 43.4103C75.2631 43.2211 75.1675 43.1266 74.9765 43.1266ZM73.257 44.5452C73.257 44.8526 73.2092 45.089 73.1137 45.2545H73.4003C73.4003 45.1127 73.4958 44.9235 73.6869 44.6871L73.4003 44.5452H73.257ZM83.5739 46.815C83.8843 46.5313 84.1231 46.3894 84.2903 46.3894V45.822C83.8127 46.0111 83.5739 46.3421 83.5739 46.815ZM83.0007 46.9569V47.3825H83.2873C83.2873 47.2879 83.3351 47.146 83.4306 46.9569H83.0007ZM81.9977 48.8011H82.141C82.4037 48.7302 82.6425 48.4937 82.8574 48.0918H82.7141C82.4514 48.1627 82.2126 48.3992 81.9977 48.8011Z" fill="white"/>
<path d="M113.271 30.7844H113.557C114.226 30.7844 114.799 31.3046 115.277 32.3449C115.277 33.3853 114.513 34.7093 112.984 36.3171H112.841L112.984 36.6008C112.841 36.6008 112.698 36.7427 112.554 37.0264C112.698 37.0264 112.841 37.1683 112.984 37.452C112.984 37.6175 112.363 38.2796 111.121 39.4381H110.978L110.691 39.2962V39.7218L109.975 39.58C109.139 40.1474 108.709 40.5257 108.685 40.7149V40.9986H108.829C109.593 40.5257 109.975 40.1947 109.975 40.0056L110.262 39.8637H110.405V40.1474C110.405 40.242 109.641 40.904 108.112 42.1335H107.826V41.8498H107.396V41.9917C107.396 42.1808 107.539 42.2754 107.826 42.2754V42.4172C107.826 42.6064 107.73 42.701 107.539 42.701H107.396L106.823 42.2754C106.823 42.3936 106.106 43.0556 104.673 44.2615V44.4033H104.817C104.912 44.4033 105.199 44.2142 105.676 43.8359H105.82C105.82 43.9541 105.294 44.4743 104.243 45.3964H104.1C104.1 45.3018 104.052 45.1599 103.957 44.9708C103.766 45.0654 103.623 45.1127 103.527 45.1127V45.3964H103.814V45.5382C103.814 45.7038 103.479 45.9875 102.811 46.3894H102.381V46.1057C102.214 46.2003 102.022 46.2476 101.808 46.2476V46.6732L102.237 46.3894H102.381V46.815C102.166 46.815 101.067 47.5716 99.085 49.0848C98.8462 49.0848 97.9387 49.5577 96.3625 50.5035L94.2132 50.9291C91.825 50.5981 90.6309 49.605 90.6309 47.9499V47.5243C90.6309 46.2476 91.6817 44.3088 93.7833 41.7079C93.7833 41.5188 94.1176 41.1878 94.7863 40.7149C94.7863 40.3839 95.3117 39.8637 96.3625 39.1544C96.3625 38.9416 97.9865 37.6175 101.234 35.1822C103.384 34.1419 105.39 33.2434 107.253 32.4868C108.805 32.2031 109.712 32.0612 109.975 32.0612H110.691C110.787 32.0612 111.026 32.2976 111.408 32.7705V33.1961C111.408 33.3853 109.975 33.8108 107.109 34.4729C103.408 36.128 100.494 37.9722 98.3686 40.0056C96.7207 41.3533 95.2878 42.9611 94.0699 44.8289C93.3056 45.9875 92.7802 47.1697 92.4937 48.3755C92.6131 48.8484 92.7564 49.0848 92.9235 49.0848C94.6191 49.0848 97.2461 47.9026 100.804 45.5382L106.966 40.7149L107.826 40.2893L107.682 40.0056L110.548 37.452L113.987 33.1961L114.13 32.2031C113.462 31.872 112.984 31.541 112.698 31.21L113.271 30.7844ZM115.133 33.4798C115.325 33.5035 115.42 33.5981 115.42 33.7636C115.42 33.9527 115.325 34.0473 115.133 34.0473V33.4798ZM114.847 34.7566H114.99V34.8985C114.536 35.5605 114.25 35.8915 114.13 35.8915H113.987V35.7497C114.465 35.0876 114.751 34.7566 114.847 34.7566ZM111.695 37.3102L111.838 37.5939V38.0195C111.718 38.0195 111.336 38.2559 110.691 38.7288V39.0125H110.978C111.169 39.0125 111.647 38.4924 112.411 37.452H112.554C112.554 37.2629 112.459 37.1683 112.268 37.1683C112.101 37.2629 111.909 37.3102 111.695 37.3102ZM108.112 40.1474V40.4312H108.399C108.542 40.4312 108.685 40.2893 108.829 40.0056H108.542C108.351 40.1001 108.208 40.1474 108.112 40.1474Z" fill="white"/>
<path d="M146.872 4.71697H147.159C148.186 5.09527 148.699 5.36718 148.699 5.53268L143.218 12.5195L137.737 19.4353C137.594 19.5063 137.033 20.1683 136.054 21.4214C135.887 21.516 134.931 22.6391 133.188 24.7907C132.185 26.0911 131.17 27.2378 130.143 28.2309V28.3018C131.051 28.4437 131.863 28.5146 132.579 28.5146L132.866 28.4082C133.057 28.4791 133.26 28.5146 133.475 28.5146L135.445 28.3018C135.564 28.3018 135.719 28.3373 135.911 28.4082L136.233 28.3018C136.925 28.3727 137.475 28.4082 137.881 28.4082L138.203 28.3018C138.394 28.3727 138.538 28.4082 138.633 28.4082L139.708 28.3018V28.4082C139.803 28.4082 139.851 28.3727 139.851 28.3018C139.947 28.3018 140.257 28.3373 140.782 28.4082C140.95 28.4082 141.559 28.3727 142.609 28.3018C142.705 28.3018 142.86 28.3373 143.075 28.4082C143.768 28.3373 144.317 28.3018 144.723 28.3018H146.407C146.621 28.3018 146.824 28.2782 147.015 28.2309C147.23 28.2782 147.887 28.3373 148.986 28.4082C149.702 28.3373 150.311 28.3018 150.813 28.3018C151.028 28.3018 151.589 28.3373 152.496 28.4082L152.783 28.3018C153.332 28.3727 153.738 28.4082 154.001 28.4082C154.12 28.4082 154.634 28.3727 155.541 28.3018V28.4082C155.732 28.3373 155.876 28.3018 155.971 28.3018C156.186 28.3018 156.747 28.3373 157.655 28.4082C157.75 28.4082 157.798 28.3727 157.798 28.3018L158.873 28.4082H161.774L162.67 28.5146L162.957 28.4082C163.673 28.4791 164.234 28.5146 164.64 28.5146H165.249L166.001 28.4082L166.181 28.5855L166.467 28.5146C166.993 28.5619 167.303 28.5855 167.398 28.5855C167.948 28.5382 168.354 28.5146 168.616 28.5146L168.903 28.5855C169.07 28.5382 169.273 28.5146 169.512 28.5146C169.608 28.5146 169.655 28.5382 169.655 28.5855L170.264 28.5146C170.336 28.5146 170.993 28.5382 172.235 28.5855L173.023 28.5146C175.459 28.6328 176.772 28.7156 176.963 28.7629L177.715 28.6919C179.268 28.6919 180.593 28.751 181.692 28.8693L181.978 28.7629L182.731 28.9402L183.053 28.8693L184.092 28.9402L184.414 28.8693L184.701 28.9402C184.82 28.9402 184.88 28.9165 184.88 28.8693C186.193 28.9165 186.85 28.9993 186.85 29.1175L187.137 29.0466H187.602L188.355 29.1175C188.402 28.9993 188.51 28.9402 188.677 28.9402H188.82C189.035 29.0584 189.489 29.153 190.182 29.2239C190.229 29.1057 190.337 29.0466 190.504 29.0466C190.528 29.1648 190.623 29.2239 190.791 29.2239L191.722 29.1175C192.749 29.2121 193.358 29.283 193.549 29.3303C193.716 29.2594 193.919 29.2239 194.158 29.2239H194.301C194.492 29.2476 194.588 29.3067 194.588 29.4012C194.707 29.4012 194.767 29.3776 194.767 29.3303L195.806 29.4012H196.88C196.976 29.4012 197.024 29.4367 197.024 29.5076L197.346 29.4012C198.063 29.5195 198.469 29.5786 198.564 29.5786V29.4012C198.779 29.5195 199.591 29.6377 201 29.7559V30.3234L200.821 30.5007C200.009 30.4298 199.603 30.3352 199.603 30.217L199.316 30.3234H199.173C198.958 30.3234 198.851 30.2288 198.851 30.0396H198.385L198.564 30.217L198.098 30.3943H197.489C197.274 30.3943 197.167 30.3115 197.167 30.146C197.071 30.146 197.024 30.1697 197.024 30.217L195.949 30.146L194.158 30.217C193.633 30.217 193.37 30.1579 193.37 30.0396L192.618 30.146H192.331C192.092 30.146 191.889 30.1106 191.722 30.0396C191.34 30.1579 190.826 30.2524 190.182 30.3234C190.182 30.2051 190.086 30.146 189.895 30.146C189.656 30.146 189.453 30.1697 189.286 30.217L187.746 29.7559L187.459 29.8623H186.993V30.0396C186.802 29.9214 186.504 29.8623 186.098 29.8623C186.098 30.0515 184.928 30.1697 182.587 30.217C182.181 30.1224 181.978 30.0396 181.978 29.9687L181.226 30.0396H180.904C180.736 29.8505 180.33 29.7559 179.686 29.7559C179.686 29.8978 179.59 29.9687 179.399 29.9687H178.647C178.527 29.9687 178.468 29.9332 178.468 29.8623L178.181 29.9687L177.25 29.8623C177.178 29.8623 176.88 29.8978 176.354 29.9687C175.805 29.8978 175.399 29.8623 175.136 29.8623L174.85 29.9687C174.754 29.9687 174.444 29.8387 173.918 29.5786V29.8623H173.632L173.775 29.685H173.452V29.8623H173.023L172.235 29.7559C172.235 29.8505 172.032 29.9451 171.626 30.0396C171.626 29.9924 171.423 29.8978 171.017 29.7559L170.73 29.8623H169.225L168.903 29.7559L168.76 29.9687L165.858 29.7559L165.249 29.8623C163.267 29.7914 162.001 29.7323 161.452 29.685L161.165 29.7559C159.661 29.685 158.849 29.6259 158.729 29.5786C158.323 29.6495 157.965 29.685 157.655 29.685C157.225 29.685 156.664 29.6495 155.971 29.5786C155.207 29.6495 154.705 29.7086 154.467 29.7559L153.535 29.685H152.64C152.544 29.685 152.496 29.6495 152.496 29.5786C152.377 29.5786 152.317 29.614 152.317 29.685L151.565 29.5786C150.92 29.5786 150.263 29.614 149.595 29.685C149.022 29.614 148.21 29.5786 147.159 29.5786V29.4012H146.872C146.872 29.4722 146.813 29.5668 146.693 29.685L145.941 29.5786C144.699 29.6495 144.042 29.685 143.971 29.685C143.971 29.5904 143.815 29.4958 143.505 29.4012C143.505 29.4958 143.362 29.5904 143.075 29.685C142.86 29.685 142.753 29.6259 142.753 29.5076L142.896 29.3303H142.753C142.418 29.3303 142.06 29.4131 141.678 29.5786H141.248C141.129 29.5786 141.069 29.5549 141.069 29.5076L140.782 29.5786H138.203V29.4012H139.099L138.955 29.2239L137.881 29.3303H137.128V29.5786H136.52C136.424 29.5786 136.376 29.5549 136.376 29.5076L136.054 29.5786C135.863 29.5313 135.719 29.5076 135.624 29.5076L135.445 29.685L134.693 29.5786H131.97C131.898 29.5786 131.636 29.4604 131.182 29.2239H130.43C129.833 29.2712 129.534 29.3658 129.534 29.5076L130.286 29.4012H130.752V29.685H130.286C129.068 29.685 128.459 29.8978 128.459 30.3234C127.647 31.3873 126.991 32.1439 126.489 32.5932C126.489 32.735 126.035 33.2434 125.128 34.1182C124.531 35.2058 124.017 35.7497 123.588 35.7497C123.397 35.7024 123.253 35.6787 123.158 35.6787V35.856C123.444 35.856 123.588 35.9152 123.588 36.0334C123.588 36.1516 122.776 37.121 121.152 38.9416C121.152 39.2017 120.698 39.7455 119.79 40.573C119.456 41.235 119.158 41.6252 118.895 41.7434H118.716V42.2044L117.82 42.9138C117.916 42.9138 117.963 42.9492 117.963 43.0202C117.82 43.0911 117.211 43.8122 116.137 45.1836C115.516 46.153 114.907 46.7559 114.31 46.9923L114.023 46.9214V47.0987C114.333 47.0987 114.489 47.1579 114.489 47.2761L113.88 47.4534L114.023 47.6307V47.7371H113.414V47.9145C113.605 48.0563 113.701 48.1745 113.701 48.2691C113.51 48.5529 113.307 48.7065 113.092 48.7302L112.805 48.6238C112.041 49.404 111.539 50.0779 111.3 50.6453L110.083 51L109.903 50.8227V50.6453L110.691 50.7163V50.6453L110.369 50.3616V50.1843C110.847 49.3095 111.706 48.0681 112.948 46.4604C112.948 46.2239 114.119 44.6516 116.459 41.7434C116.984 41.0104 117.39 40.6439 117.677 40.6439L117.534 40.4666V40.3957C118.131 40.0883 118.632 39.4854 119.038 38.5869C119.229 38.5869 119.384 38.3387 119.504 37.8421C121.199 36.1398 122.513 34.532 123.444 33.0188C123.611 33.0188 124.065 32.6641 124.806 31.9548C125.307 31.3401 125.821 30.5834 126.346 29.685H126.167C125.594 29.685 125.247 29.7086 125.128 29.7559C124.579 29.7086 124.125 29.685 123.767 29.685H123.158C122.107 29.685 121.295 29.7086 120.722 29.7559L119.647 29.685C115.993 29.7323 113.605 29.7914 112.483 29.8623L112.196 29.7559L111.3 29.8623H110.835C110.524 29.8623 110.369 29.8268 110.369 29.7559L109.617 29.8623H108.542L107.647 29.7559C107.432 29.8268 107.276 29.8623 107.181 29.8623V29.7559C107.085 29.7559 107.038 29.7914 107.038 29.8623L106.25 29.7559H104.136C100.578 29.7559 98.7984 29.3067 98.7984 28.4082C98.6313 28.4082 98.5357 28.1954 98.5118 27.7698C101.449 26.895 104.84 26.0438 108.685 25.2163C111.384 24.7197 113.056 24.3651 113.701 24.1523C113.82 24.1523 113.88 24.1759 113.88 24.2232C116.387 23.5612 120.232 22.8755 125.415 22.1662H125.737C126.43 22.5209 126.776 22.911 126.776 23.3366C121.785 24.0459 115.611 25.1926 108.256 26.7768C104.363 27.7462 102.333 28.2309 102.166 28.2309V28.3018C103.312 28.4437 105.282 28.5146 108.076 28.5146H109.294C109.533 28.5146 109.736 28.5382 109.903 28.5855C110.094 28.5382 110.297 28.5146 110.512 28.5146C110.727 28.5146 110.835 28.5382 110.835 28.5855L111.587 28.5146H115.85C116.256 28.5146 116.817 28.4791 117.534 28.4082C117.629 28.4082 117.677 28.4437 117.677 28.5146L118.716 28.4082H120.113C120.328 28.4082 120.531 28.4437 120.722 28.5146C120.817 28.5146 120.865 28.4791 120.865 28.4082C121.39 28.4791 121.689 28.5146 121.761 28.5146C121.928 28.5146 122.74 28.4791 124.197 28.4082L125.271 28.5146C126.991 28.5146 127.85 28.3255 127.85 27.9471C128.304 27.6398 129.415 26.3748 131.182 24.1523C131.66 23.7503 132.018 23.2656 132.257 22.6982C132.591 22.6982 132.997 22.2371 133.475 21.315C134.502 20.251 135.218 19.3526 135.624 18.6196C135.934 18.5487 136.484 17.8748 137.272 16.5981C138.179 15.5814 138.943 14.6238 139.564 13.7253C139.684 13.7253 140.09 13.1815 140.782 12.0939C140.973 11.9757 142.538 9.94228 145.475 5.99374C146.096 5.1662 146.562 4.74061 146.872 4.71697ZM143.827 29.3303V29.4012H144.436L144.257 29.2239C144.066 29.2949 143.923 29.3303 143.827 29.3303ZM135.015 29.3303V29.4012H135.624V29.3303H135.015ZM150.813 29.3303V29.4012H151.422V29.3303H150.813ZM124.662 29.4012V29.5076H125.271V29.4012H124.662ZM162.957 29.4012V29.5076H163.888V29.4012H162.957ZM182.122 29.7559V29.8623H182.874V29.685C182.707 29.7323 182.456 29.7559 182.122 29.7559ZM187.316 29.9687H187.602L188.355 30.0396V30.217L187.316 30.146V29.9687ZM197.633 30.146C197.657 30.2643 197.764 30.3234 197.955 30.3234L198.098 30.146H197.633Z" fill="white"/>
<path d="M138.884 31.1391C139.481 31.1391 140.066 31.6356 140.639 32.6286V32.735C140.639 32.8533 140.508 32.9715 140.245 33.0897C139.672 32.9478 139.182 32.8769 138.776 32.8769C135.146 33.6808 132.125 35.1467 129.713 37.2747C129.451 37.5821 129.319 37.8776 129.319 38.1613C129.94 38.6106 132.555 39.2608 137.164 40.112C137.785 40.112 138.573 40.8095 139.529 42.2044V42.3108C139.529 43.7058 137.367 45.3136 133.045 47.1342C132.83 47.3943 132.173 47.7608 131.074 48.2337L130.931 47.9854H131.182V47.8435H130.931C130.931 48.2218 130.525 48.6001 129.713 48.9784C129.546 48.9784 129.462 48.8957 129.462 48.7302C129.462 48.541 129.665 48.411 130.071 48.3401V48.2337H129.57L129.068 48.7302C128.925 48.6356 128.77 48.5883 128.603 48.5883L128.459 48.8366C128.865 48.9075 129.068 49.0257 129.068 49.1912C128.806 49.3567 128.567 49.4395 128.352 49.4395H127.958C127.886 49.4395 127.85 49.404 127.85 49.3331L127.6 49.4395L127.349 49.3331L127.206 49.5814H127.456V49.8296C127.385 49.8296 127.265 49.8651 127.098 49.936L126.489 49.8296L124.877 50.4325L123.982 50.6808V50.5744C124.077 50.4089 124.125 50.2789 124.125 50.1843C124.029 50.0188 123.982 49.9006 123.982 49.8296C124.412 49.475 126.895 48.2809 131.433 46.2476C133.964 44.8999 135.29 44.1196 135.409 43.9068C136.675 43.2684 137.379 42.6182 137.523 41.9562C136.591 41.5542 134.728 41.1405 131.934 40.7149C129.116 40.0056 127.707 38.8234 127.707 37.1683C127.707 36.5063 128.495 35.6433 130.071 34.5793C134.012 32.2858 136.949 31.1391 138.884 31.1391ZM130.466 47.8435L130.322 48.0918H130.716C130.716 47.9263 130.633 47.8435 130.466 47.8435ZM123.265 49.936H123.731C123.659 50.3616 123.337 50.5744 122.764 50.5744V50.4325C122.764 50.3143 122.931 50.1488 123.265 49.936ZM121.761 50.5744H121.868C122.035 50.5981 122.119 50.6808 122.119 50.8227L121.868 50.9291L121.761 50.6808V50.5744Z" fill="white"/>
</svg>
